<?xml version="1.0" ?><!DOCTYPE svg  PUBLIC '-//W3C//DTD SVG 1.1//EN'  'http://www.w3.org/Graphics/SVG/1.1/DTD/svg11.dtd'><svg enable-background="new 0 0 64 64" height="64px" id="Layer_1" version="1.1" viewBox="0 0 64 64" width="64px" xml:space="preserve" xmlns="http://www.w3.org/2000/svg" xmlns:xlink="http://www.w3.org/1999/xlink"><g><path d="M62.075,9.842H1.925c-0.906,0-1.64,0.733-1.64,1.634v41.051c0,0.902,0.733,1.632,1.64,1.632h60.15   c0.909,0,1.64-0.729,1.64-1.632V11.476C63.715,10.575,62.984,9.842,62.075,9.842z M4.838,13.017h54.174   c0.819,0,1.479,0.626,1.479,1.398v4.984H3.361v-4.984C3.361,13.643,4.022,13.017,4.838,13.017z M59.012,50.917H4.838   c-0.815,0-1.477-0.625-1.477-1.397V30.512h57.13V49.52C60.491,50.292,59.831,50.917,59.012,50.917z" fill="#241F20"/></g></svg>